<?xml version="1.0" encoding="utf-8"?>
<!-- Generator: Adobe Illustrator 18.1.0, SVG Export Plug-In . SVG Version: 6.00 Build 0)  -->
<svg version="1.0" id="Layer_1" xmlns="http://www.w3.org/2000/svg" xmlns:xlink="http://www.w3.org/1999/xlink" x="0px" y="0px"
	 viewBox="0 0 150 150" enable-background="new 0 0 150 150" xml:space="preserve">
<g>
	<path fill="#FF893D" d="M88.2,116.4L88.2,116.4h-43V58.9H59c1.3,3.2,3.4,5.7,6,7.2c2.2,1.4,4.9,2.2,7.9,2.2
		c6.8,0,12.6-3.8,15.6-9.5H75.1l-4.8-8.4l4.8-8.4h13.4c-3-5.6-8.8-9.5-15.6-9.5c-3,0-5.7,0.8-7.8,2.1c-2.5,1.5-4.7,4.1-6,7.3H34.2
		v1.5v15.4v69.9c0,7.5,6.1,13.7,13.6,13.7h51.9c7.5,0,13.7-6.1,13.7-13.7v-12.3H88.2z M73.8,136.9c-5.3,0-9.6-3.1-9.6-6.8
		c0-3.8,4.3-6.8,9.6-6.8c5.3,0,9.6,3.1,9.6,6.8C83.4,133.9,79.1,136.9,73.8,136.9z"/>
	<path d="M117.3,82.3c-1.1-1.4-2.4-2.6-3.9-3.4V22.3c0-7.5-6.1-13.7-13.7-13.7H47.9c-7.5,0-13.6,6.1-13.6,13.7v4.2h68.2v52.1
		c-0.7,0.3-1.3,0.7-1.9,1.1c-2.6,1.9-4.3,4.7-4.8,7.8c-0.5,3.2,0.3,6.3,2.2,8.9c2.3,3.1,5.9,4.9,9.7,4.9c2.6,0,5-0.8,7.1-2.3
		C120.1,95.2,121.2,87.6,117.3,82.3z M110.9,93.9c-1,0.7-2.1,1.1-3.3,1.1c-1.8,0-3.5-0.8-4.5-2.3c-0.9-1.2-1.2-2.7-1-4.2
		c0.2-1.5,1-2.8,2.2-3.7c1-0.7,2.1-1.1,3.3-1.1c1.8,0,3.5,0.8,4.5,2.3C114,88.6,113.4,92.1,110.9,93.9z"/>
</g>
</svg>
